<svg width="55" height="28" viewBox="0 0 55 28" fill="none" xmlns="http://www.w3.org/2000/svg">
<g clip-path="url(#clip0_20_433)">
<path d="M3.78492 0H51.2151C52.2189 0 53.1816 0.39391 53.8914 1.09507C54.6012 1.79624 55 2.74722 55 3.73882V24.2612C55 25.2528 54.6012 26.2038 53.8914 26.9049C53.1816 27.6061 52.2189 28 51.2151 28H3.78492C2.7811 28 1.81839 27.6061 1.10858 26.9049C0.398768 26.2038 0 25.2528 0 24.2612L0 3.73882C0 2.74722 0.398768 1.79624 1.10858 1.09507C1.81839 0.39391 2.7811 0 3.78492 0Z" fill="#CE0016"/>
<path d="M22.2987 22.4579L17.2004 5.45001H12.6686L7.57031 22.4579H10.785L11.7602 19.1004H17.7669L18.7157 22.4579H22.2987ZM17.0427 16.4845H12.5374L14.8083 8.57192L17.0427 16.4845Z" fill="white"/>
<path d="M26.7466 22.4589H23.4814V5.4498H28.528C29.5252 5.43637 30.5196 5.5567 31.484 5.80748C32.2676 6.01206 33.0022 6.36832 33.6452 6.8556C34.2217 7.3064 34.6785 7.88896 34.9763 8.55302C35.29 9.28325 35.4447 10.0705 35.4305 10.8636C35.4376 11.7016 35.2857 12.5335 34.9826 13.3163C34.6913 14.0547 34.2365 14.7194 33.6515 15.2617C33.0172 15.8362 32.2675 16.2723 31.4512 16.5416C30.4674 16.8592 29.4367 17.0116 28.4018 16.9928H26.7466V22.4589ZM26.7869 13.5082C26.7268 13.5031 26.6664 13.5127 26.6109 13.5362C26.5555 13.5597 26.5067 13.5963 26.469 13.6428C26.432 13.7241 26.4155 13.813 26.4207 13.9019C26.426 13.9909 26.453 14.0773 26.4993 14.1538C26.5147 14.2434 26.5638 14.324 26.6368 14.3793C26.7104 14.4632 26.7995 14.5326 26.8992 14.5837L26.9383 14.6087C27.6328 15.0815 28.453 15.3416 29.2964 15.3564C29.8801 15.3536 30.4556 15.2198 30.9794 14.9651C31.749 14.6719 32.4184 14.1689 32.9098 13.5145C33.4012 12.8601 33.6943 12.0812 33.755 11.2686C33.8057 10.9433 33.7976 10.6116 33.731 10.2891C33.6743 10.102 33.5731 9.93109 33.4358 9.79057C33.3563 9.70333 33.2743 9.62108 33.191 9.54131V9.52885C33.191 9.46654 33.191 9.40422 33.191 9.33194C33.1914 9.15134 33.2083 8.97114 33.2415 8.79355C33.2529 8.72127 33.2642 8.65023 33.273 8.57795C33.3 8.44866 33.2989 8.31522 33.27 8.18636C33.2411 8.0575 33.1849 7.93612 33.1052 7.83018C33.0568 7.77118 32.9966 7.72253 32.9285 7.68718C32.8604 7.65183 32.7858 7.63052 32.7091 7.62455H32.6523C32.5282 7.62507 32.4054 7.65015 32.2912 7.69831C32.177 7.74647 32.0737 7.81673 31.9874 7.90496C31.9412 7.94909 31.9137 8.00901 31.9106 8.07248C31.9076 8.13595 31.9292 8.19818 31.971 8.24644C31.9886 8.2699 32.0107 8.28969 32.036 8.30466C32.0613 8.31963 32.0894 8.3295 32.1186 8.33368C32.1906 8.33368 32.2448 8.25641 32.2902 8.09938C32.3243 7.97475 32.3937 7.90745 32.4921 7.90745C32.6134 7.92085 32.7247 7.98029 32.8025 8.07321C32.8753 8.14034 32.9203 8.23185 32.9286 8.32994C32.9086 8.49606 32.8456 8.6543 32.7457 8.78941C32.6458 8.92452 32.5124 9.03196 32.3584 9.10138C32.2889 9.09247 32.219 9.08789 32.1489 9.08767C31.8655 9.09595 31.5874 9.16528 31.3339 9.29081H31.2885C31.1161 9.2987 30.9508 9.36091 30.8169 9.46834C30.6829 9.57577 30.5873 9.72277 30.5441 9.88778C30.2994 10.5857 30.0395 11.2898 29.7871 11.9715C29.6837 12.2482 29.5811 12.5245 29.4793 12.8003L29.3998 12.9063L29.3203 13.0122C28.8886 13.4041 28.3394 13.6465 27.7559 13.7026C27.53 13.7006 27.3067 13.6548 27.0986 13.568C26.9983 13.5282 26.8912 13.5079 26.7832 13.5082" fill="white"/>
<path d="M40.4832 8.06596V19.8158H36.6895V22.4579H47.5711V19.8158H43.7786V8.06596H47.5724V5.44879H36.6895V8.06596H40.4832Z" fill="white"/>
</g>
<defs>
<clipPath id="clip0_20_433">
<rect width="55" height="28" fill="white"/>
</clipPath>
</defs>
</svg>
