<svg width="236" height="29" viewBox="0 0 236 29" fill="none" xmlns="http://www.w3.org/2000/svg">
<g clip-path="url(#clip0_0_1)">
<path fill-rule="evenodd" clip-rule="evenodd" d="M26.4003 9.7C26.2003 9 25.8003 8.4 25.3003 7.9C23.1003 5.4 21.1003 4.5 17.7003 6.1H17.5003C16.2003 6.2 15.1003 7 14.8003 8.3C13.6003 11.9 12.2003 15.4 10.9003 18.9C10.7003 19.2 10.5003 19.4 10.3003 19.7C7.90027 21.5 5.60027 23.1 2.30027 21.7C1.10027 21.2 -0.899732 21.4 0.100268 23.8C0.200268 24.1 0.300268 24.4 0.600268 24.6C0.900268 24.9 1.30027 25.2 1.70027 25.4C6.30027 28.4 11.4003 29.1 16.3003 26.7C21.9003 24 25.9003 19.8 26.3003 13.2C26.6003 12.1 26.6003 10.9 26.4003 9.7Z" fill="#CA312C"/>
<path fill-rule="evenodd" clip-rule="evenodd" d="M24.4004 6.2C24.4004 5.3 24.5004 4.4 24.7004 3.4C25.0004 1 23.7004 2.39629e-06 22.7004 -0.0999976C21.7004 -0.199998 20.8004 0.200002 20.1004 0.900002C19.7004 1.2 19.7004 1.8 20.0004 2.2C20.5004 2.7 20.9004 2.7 21.1004 1.7C21.6004 0.100002 23.5004 1.7 23.4004 2.5C23.3004 4.2 22.1004 4.8 21.0004 5.5C19.9004 6.2 19.0004 6.4 17.3004 7C17.0004 7.1 16.9004 7.5 17.0004 7.8C17.0004 7.9 17.1004 8 17.2004 8C17.6004 8.1 18.1004 8.1 18.5004 8C19.9004 7.8 20.3004 8.2 20.8004 9.6C21.7004 9.2 22.6004 9.1 23.5004 9.2C24.4004 9.5 24.4004 10.1 24.8004 10.5C25.0004 10.6 25.2004 10.5 25.3004 10.3C25.3004 10.3 25.3004 10.2 25.3004 10.1C24.7004 8.9 24.3004 7.6 24.4004 6.2Z" fill="#91B949"/>
<path d="M44.2754 22.4273C43.624 22.6893 42.9914 22.884 42.3774 23.0113C41.771 23.1385 41.1383 23.2022 40.4795 23.2022C39.4238 23.2022 38.488 23.0487 37.6719 22.7417C36.8633 22.4273 36.1782 21.9631 35.6167 21.3492C35.0627 20.7352 34.6396 19.9753 34.3477 19.0694C34.0632 18.156 33.9209 17.0965 33.9209 15.8911C33.9209 14.6558 34.0781 13.5589 34.3926 12.6006C34.707 11.6348 35.1562 10.8225 35.7402 10.1636C36.3242 9.49726 37.0317 8.99189 37.8628 8.64749C38.7013 8.2956 39.641 8.11966 40.6816 8.11966C41.0186 8.11966 41.333 8.12715 41.625 8.14212C41.9245 8.15709 42.2165 8.18704 42.501 8.23196C42.7855 8.2694 43.0737 8.32181 43.3657 8.38919C43.6577 8.45657 43.9609 8.54267 44.2754 8.64749V11.3877C43.639 11.0882 43.0326 10.8749 42.4561 10.7476C41.8796 10.6203 41.3555 10.5567 40.8838 10.5567C40.1875 10.5567 39.5923 10.6839 39.0981 10.9385C38.604 11.1856 38.196 11.5375 37.874 11.9942C37.5596 12.4434 37.3275 12.9825 37.1777 13.6114C37.028 14.2328 36.9531 14.9178 36.9531 15.6665C36.9531 16.4602 37.028 17.1714 37.1777 17.8003C37.335 18.4217 37.5745 18.9496 37.8965 19.3838C38.2184 19.8181 38.6302 20.1512 39.1318 20.3833C39.6335 20.6079 40.2287 20.7202 40.9175 20.7202C41.1646 20.7202 41.4303 20.6978 41.7148 20.6529C42.0068 20.6005 42.2988 20.5368 42.5908 20.4619C42.8903 20.3796 43.1823 20.286 43.4668 20.1812C43.7588 20.0689 44.0283 19.9566 44.2754 19.8443V22.4273ZM57.4824 17.2051C57.4824 18.1035 57.3551 18.9271 57.1006 19.6758C56.846 20.417 56.4792 21.0534 56 21.585C55.5208 22.1166 54.9331 22.5284 54.2368 22.8203C53.5405 23.1123 52.7469 23.2583 51.856 23.2583C51.0099 23.2583 50.2537 23.1348 49.5874 22.8877C48.9211 22.6407 48.3558 22.2738 47.8916 21.7871C47.4274 21.293 47.0718 20.6791 46.8247 19.9453C46.5776 19.2041 46.4541 18.3431 46.4541 17.3623C46.4541 16.4564 46.5814 15.6328 46.8359 14.8916C47.098 14.1504 47.4686 13.5178 47.9478 12.9937C48.4344 12.4696 49.0259 12.0653 49.7222 11.7808C50.4185 11.4888 51.2046 11.3428 52.0806 11.3428C52.9341 11.3428 53.694 11.4701 54.3604 11.7246C55.0267 11.9717 55.592 12.3423 56.0562 12.8365C56.5203 13.3306 56.8722 13.9445 57.1118 14.6783C57.3589 15.4045 57.4824 16.2468 57.4824 17.2051ZM54.6299 17.2725C54.6299 16.0895 54.4053 15.2023 53.9561 14.6109C53.5143 14.0119 52.8592 13.7124 51.9907 13.7124C51.5116 13.7124 51.1035 13.806 50.7666 13.9932C50.4297 14.1804 50.1527 14.4387 49.9355 14.7681C49.7184 15.09 49.5575 15.4681 49.4526 15.9024C49.3553 16.3366 49.3066 16.8008 49.3066 17.295C49.3066 18.4854 49.5462 19.3838 50.0254 19.9903C50.5046 20.5892 51.1597 20.8887 51.9907 20.8887C52.4474 20.8887 52.8442 20.7989 53.1812 20.6192C53.5181 20.432 53.7913 20.1774 54.001 19.8555C54.2106 19.5261 54.3678 19.1405 54.4727 18.6988C54.5775 18.257 54.6299 17.7816 54.6299 17.2725ZM66.5679 8.4678C66.5679 8.71487 66.5229 8.94697 66.4331 9.16409C66.3433 9.38122 66.216 9.57213 66.0513 9.73685C65.894 9.89407 65.7069 10.0214 65.4897 10.1187C65.2726 10.2085 65.0368 10.2534 64.7822 10.2534C64.5277 10.2534 64.2881 10.2085 64.0635 10.1187C63.8464 10.0214 63.6554 9.89407 63.4907 9.73685C63.3335 9.57213 63.21 9.38122 63.1201 9.16409C63.0303 8.94697 62.9854 8.71487 62.9854 8.4678C62.9854 8.22073 63.0303 7.98864 63.1201 7.77151C63.21 7.55439 63.3335 7.36347 63.4907 7.19876C63.6554 7.03405 63.8464 6.90677 64.0635 6.81693C64.2881 6.71959 64.5277 6.67093 64.7822 6.67093C65.0368 6.67093 65.2726 6.71959 65.4897 6.81693C65.7069 6.90677 65.894 7.03405 66.0513 7.19876C66.216 7.36347 66.3433 7.55439 66.4331 7.77151C66.5229 7.98864 66.5679 8.22073 66.5679 8.4678ZM63.5356 13.7237H60.3125V11.5899H66.3433V20.8662H69.6338V23H59.9194V20.8662H63.5356V13.7237ZM79.3032 23V15.5655C79.3032 14.3151 78.839 13.69 77.9106 13.69C77.4465 13.69 77.001 13.8771 76.5742 14.2515C76.1549 14.6258 75.7095 15.135 75.2378 15.7788V23H72.4976V11.5899H74.8672L74.9346 13.2744C75.1667 12.9825 75.4062 12.7167 75.6533 12.4771C75.9079 12.2375 76.1812 12.0353 76.4731 11.8706C76.7651 11.6984 77.0796 11.5674 77.4165 11.4776C77.7534 11.3877 78.1315 11.3428 78.5508 11.3428C79.1348 11.3428 79.6439 11.4401 80.0781 11.6348C80.5124 11.822 80.8755 12.0915 81.1675 12.4434C81.4595 12.7878 81.6766 13.2071 81.8188 13.7012C81.9686 14.1879 82.0435 14.7344 82.0435 15.3409V23H79.3032ZM95.2842 12.9937C95.2842 13.7574 95.1569 14.4649 94.9023 15.1162C94.6478 15.7601 94.2697 16.3179 93.7681 16.7896C93.2664 17.2613 92.6413 17.6281 91.8926 17.8902C91.1439 18.1522 90.2754 18.2832 89.2871 18.2832H87.8833V23H85.0981V8.32181H89.3994C90.3503 8.32181 91.1888 8.42663 91.915 8.63626C92.6488 8.83841 93.2627 9.13789 93.7568 9.5347C94.2585 9.93151 94.6366 10.4219 94.8911 11.0059C95.1532 11.5824 95.2842 12.245 95.2842 12.9937ZM92.3867 13.1846C92.3867 12.7953 92.3231 12.4434 92.1958 12.1289C92.076 11.807 91.8888 11.5337 91.6343 11.3091C91.3872 11.0845 91.0728 10.9123 90.6909 10.7925C90.3091 10.6727 89.8561 10.6128 89.332 10.6128H87.8833V15.9922H89.4219C89.901 15.9922 90.3241 15.9286 90.6909 15.8013C91.0578 15.6665 91.3647 15.4756 91.6118 15.2285C91.8664 14.9815 92.0573 14.6857 92.1846 14.3413C92.3193 13.9969 92.3867 13.6114 92.3867 13.1846ZM104.942 23L104.875 21.5064C104.635 21.7609 104.385 21.9968 104.123 22.2139C103.861 22.4235 103.572 22.607 103.258 22.7642C102.943 22.9214 102.599 23.0412 102.225 23.1236C101.858 23.2134 101.453 23.2583 101.012 23.2583C100.428 23.2583 99.9149 23.1722 99.4731 23C99.0314 22.8278 98.6608 22.5882 98.3613 22.2813C98.0618 21.9743 97.8335 21.6037 97.6763 21.1695C97.5265 20.7352 97.4517 20.2561 97.4517 19.732C97.4517 19.1929 97.564 18.695 97.7886 18.2383C98.0207 17.7816 98.3688 17.3885 98.833 17.0591C99.3047 16.7297 99.8887 16.4714 100.585 16.2842C101.289 16.097 102.112 16.0034 103.056 16.0034H104.549V15.3184C104.549 15.0264 104.508 14.7644 104.426 14.5323C104.343 14.2927 104.209 14.0905 104.021 13.9258C103.842 13.7611 103.606 13.6338 103.314 13.544C103.022 13.4541 102.663 13.4092 102.236 13.4092C101.562 13.4092 100.896 13.4878 100.237 13.6451C99.5854 13.7948 98.9528 14.0082 98.3389 14.2852V12.0952C98.8854 11.8781 99.5143 11.6984 100.226 11.5562C100.944 11.4139 101.689 11.3428 102.46 11.3428C103.306 11.3428 104.033 11.4252 104.639 11.5899C105.246 11.7471 105.743 11.9867 106.133 12.3086C106.53 12.6306 106.822 13.0349 107.009 13.5215C107.196 14.0007 107.29 14.5622 107.29 15.2061V23H104.942ZM104.549 17.9576H102.876C102.412 17.9576 102.019 18.0025 101.697 18.0923C101.375 18.1822 101.113 18.3057 100.911 18.4629C100.708 18.6201 100.559 18.8036 100.461 19.0132C100.372 19.2154 100.327 19.4325 100.327 19.6646C100.327 20.1288 100.476 20.4844 100.776 20.7315C101.075 20.9711 101.483 21.0909 102 21.0909C102.382 21.0909 102.779 20.9523 103.19 20.6753C103.602 20.3983 104.055 20.0015 104.549 19.4849V17.9576ZM120.699 17.0928C120.699 18.141 120.549 19.0469 120.25 19.8106C119.958 20.5742 119.546 21.2106 119.014 21.7198C118.49 22.2214 117.869 22.5957 117.15 22.8428C116.431 23.0824 115.649 23.2022 114.803 23.2022C114.518 23.2022 114.234 23.1835 113.949 23.146C113.665 23.1086 113.406 23.0599 113.174 23V27.4585H110.434V11.5899H112.804L112.871 13.2744C113.103 12.9825 113.343 12.7167 113.59 12.4771C113.844 12.2375 114.118 12.0353 114.41 11.8706C114.702 11.6984 115.016 11.5674 115.353 11.4776C115.69 11.3877 116.068 11.3428 116.487 11.3428C117.161 11.3428 117.76 11.4776 118.284 11.7471C118.808 12.0166 119.246 12.4022 119.598 12.9038C119.958 13.398 120.231 14.0007 120.418 14.7119C120.605 15.4157 120.699 16.2093 120.699 17.0928ZM117.824 17.2051C117.824 16.5762 117.779 16.0409 117.689 15.5992C117.599 15.1574 117.468 14.7943 117.296 14.5098C117.131 14.2253 116.925 14.0194 116.678 13.8921C116.439 13.7574 116.162 13.69 115.847 13.69C115.383 13.69 114.938 13.8771 114.511 14.2515C114.091 14.6258 113.646 15.135 113.174 15.7788V20.7652C113.391 20.8475 113.657 20.9149 113.972 20.9673C114.294 21.0197 114.619 21.0459 114.949 21.0459C115.383 21.0459 115.776 20.9561 116.128 20.7764C116.487 20.5967 116.791 20.3422 117.038 20.0127C117.292 19.6833 117.487 19.2827 117.622 18.8111C117.756 18.3319 117.824 17.7966 117.824 17.2051ZM130.424 16.0259C130.439 15.5992 130.417 15.236 130.357 14.9366C130.305 14.6371 130.215 14.39 130.087 14.1953C129.968 14.0007 129.818 13.8584 129.638 13.7686C129.458 13.6787 129.253 13.6338 129.021 13.6338C128.616 13.6338 128.197 13.8023 127.763 14.1392C127.336 14.4686 126.864 15.0152 126.348 15.7788V23H123.54V11.5899H126.022L126.123 13.252C126.31 12.96 126.52 12.6979 126.752 12.4659C126.992 12.2338 127.254 12.0353 127.538 11.8706C127.83 11.6984 128.152 11.5674 128.504 11.4776C128.856 11.3877 129.241 11.3428 129.661 11.3428C130.237 11.3428 130.746 11.4439 131.188 11.646C131.637 11.8407 132.012 12.1327 132.311 12.522C132.618 12.9113 132.843 13.4017 132.985 13.9932C133.135 14.5772 133.198 15.2548 133.176 16.0259H130.424ZM142.441 8.4678C142.441 8.71487 142.396 8.94697 142.306 9.16409C142.216 9.38122 142.089 9.57213 141.924 9.73685C141.767 9.89407 141.58 10.0214 141.363 10.1187C141.146 10.2085 140.91 10.2534 140.655 10.2534C140.401 10.2534 140.161 10.2085 139.937 10.1187C139.719 10.0214 139.528 9.89407 139.364 9.73685C139.207 9.57213 139.083 9.38122 138.993 9.16409C138.903 8.94697 138.858 8.71487 138.858 8.4678C138.858 8.22073 138.903 7.98864 138.993 7.77151C139.083 7.55439 139.207 7.36347 139.364 7.19876C139.528 7.03405 139.719 6.90677 139.937 6.81693C140.161 6.71959 140.401 6.67093 140.655 6.67093C140.91 6.67093 141.146 6.71959 141.363 6.81693C141.58 6.90677 141.767 7.03405 141.924 7.19876C142.089 7.36347 142.216 7.55439 142.306 7.77151C142.396 7.98864 142.441 8.22073 142.441 8.4678ZM139.409 13.7237H136.186V11.5899H142.216V20.8662H145.507V23H135.792V20.8662H139.409V13.7237ZM155.435 23L151.223 17.295V23H148.483V7.13138H151.223V16.419L155.21 11.5899H158.635L154.008 16.7896L159.017 23H155.435ZM168.17 23L168.103 21.5064C167.863 21.7609 167.612 21.9968 167.35 22.2139C167.088 22.4235 166.8 22.607 166.485 22.7642C166.171 22.9214 165.826 23.0412 165.452 23.1236C165.085 23.2134 164.681 23.2583 164.239 23.2583C163.655 23.2583 163.142 23.1722 162.701 23C162.259 22.8278 161.888 22.5882 161.589 22.2813C161.289 21.9743 161.061 21.6037 160.904 21.1695C160.754 20.7352 160.679 20.2561 160.679 19.732C160.679 19.1929 160.792 18.695 161.016 18.2383C161.248 17.7816 161.596 17.3885 162.061 17.0591C162.532 16.7297 163.116 16.4714 163.812 16.2842C164.516 16.097 165.34 16.0034 166.283 16.0034H167.777V15.3184C167.777 15.0264 167.736 14.7644 167.653 14.5323C167.571 14.2927 167.436 14.0905 167.249 13.9258C167.069 13.7611 166.833 13.6338 166.542 13.544C166.25 13.4541 165.89 13.4092 165.463 13.4092C164.79 13.4092 164.123 13.4878 163.464 13.6451C162.813 13.7948 162.18 14.0082 161.566 14.2852V12.0952C162.113 11.8781 162.742 11.6984 163.453 11.5562C164.172 11.4139 164.917 11.3428 165.688 11.3428C166.534 11.3428 167.26 11.4252 167.867 11.5899C168.473 11.7471 168.971 11.9867 169.36 12.3086C169.757 12.6306 170.049 13.0349 170.236 13.5215C170.424 14.0007 170.517 14.5622 170.517 15.2061V23H168.17ZM167.777 17.9576H166.104C165.639 17.9576 165.246 18.0025 164.924 18.0923C164.602 18.1822 164.34 18.3057 164.138 18.4629C163.936 18.6201 163.786 18.8036 163.689 19.0132C163.599 19.2154 163.554 19.4325 163.554 19.6646C163.554 20.1288 163.704 20.4844 164.003 20.7315C164.303 20.9711 164.711 21.0909 165.228 21.0909C165.609 21.0909 166.006 20.9523 166.418 20.6753C166.83 20.3983 167.283 20.0015 167.777 19.4849V17.9576Z" fill="white"/>
</g>
<g clip-path="url(#clip1_0_1)">
<path d="M184.785 0H232.215C233.219 0 234.182 0.39391 234.891 1.09507C235.601 1.79624 236 2.74722 236 3.73882V24.2612C236 25.2528 235.601 26.2038 234.891 26.9049C234.182 27.6061 233.219 28 232.215 28H184.785C183.781 28 182.818 27.6061 182.109 26.9049C181.399 26.2038 181 25.2528 181 24.2612V3.73882C181 2.74722 181.399 1.79624 182.109 1.09507C182.818 0.39391 183.781 0 184.785 0Z" fill="#CE0016"/>
<path d="M203.299 22.4579L198.2 5.45001H193.669L188.57 22.4579H191.785L192.76 19.1004H198.767L199.716 22.4579H203.299ZM198.043 16.4845H193.537L195.808 8.57192L198.043 16.4845Z" fill="white"/>
<path d="M207.747 22.4589H204.481V5.4498H209.528C210.525 5.43637 211.52 5.5567 212.484 5.80748C213.268 6.01206 214.002 6.36832 214.645 6.8556C215.222 7.3064 215.679 7.88896 215.976 8.55302C216.29 9.28325 216.445 10.0705 216.43 10.8636C216.438 11.7016 216.286 12.5335 215.983 13.3163C215.691 14.0547 215.237 14.7194 214.652 15.2617C214.017 15.8362 213.268 16.2723 212.451 16.5416C211.467 16.8592 210.437 17.0116 209.402 16.9928H207.747V22.4589ZM207.787 13.5082C207.727 13.5031 207.666 13.5127 207.611 13.5362C207.555 13.5597 207.507 13.5963 207.469 13.6428C207.432 13.7241 207.415 13.813 207.421 13.9019C207.426 13.9909 207.453 14.0773 207.499 14.1538C207.515 14.2434 207.564 14.324 207.637 14.3793C207.71 14.4632 207.799 14.5326 207.899 14.5837L207.938 14.6087C208.633 15.0815 209.453 15.3416 210.296 15.3564C210.88 15.3536 211.456 15.2198 211.979 14.9651C212.749 14.6719 213.418 14.1689 213.91 13.5145C214.401 12.8601 214.694 12.0812 214.755 11.2686C214.806 10.9433 214.798 10.6116 214.731 10.2891C214.674 10.102 214.573 9.93109 214.436 9.79057C214.356 9.70333 214.274 9.62108 214.191 9.54131V9.52885C214.191 9.46654 214.191 9.40422 214.191 9.33194C214.191 9.15134 214.208 8.97114 214.242 8.79355C214.253 8.72127 214.264 8.65023 214.273 8.57795C214.3 8.44866 214.299 8.31522 214.27 8.18636C214.241 8.0575 214.185 7.93612 214.105 7.83018C214.057 7.77118 213.997 7.72253 213.929 7.68718C213.86 7.65183 213.786 7.63052 213.709 7.62455H213.652C213.528 7.62507 213.405 7.65015 213.291 7.69831C213.177 7.74647 213.074 7.81673 212.987 7.90496C212.941 7.94909 212.914 8.00901 212.911 8.07248C212.908 8.13595 212.929 8.19818 212.971 8.24644C212.989 8.2699 213.011 8.28969 213.036 8.30466C213.061 8.31963 213.089 8.3295 213.119 8.33368C213.191 8.33368 213.245 8.25641 213.29 8.09938C213.324 7.97475 213.394 7.90745 213.492 7.90745C213.613 7.92085 213.725 7.98029 213.802 8.07321C213.875 8.14034 213.92 8.23185 213.929 8.32994C213.909 8.49606 213.846 8.6543 213.746 8.78941C213.646 8.92452 213.512 9.03196 213.358 9.10138C213.289 9.09247 213.219 9.08789 213.149 9.08767C212.866 9.09595 212.587 9.16528 212.334 9.29081H212.288C212.116 9.2987 211.951 9.36091 211.817 9.46834C211.683 9.57577 211.587 9.72277 211.544 9.88778C211.299 10.5857 211.039 11.2898 210.787 11.9715C210.684 12.2482 210.581 12.5245 210.479 12.8003L210.4 12.9063L210.32 13.0122C209.889 13.4041 209.339 13.6465 208.756 13.7026C208.53 13.7006 208.307 13.6548 208.099 13.568C207.998 13.5282 207.891 13.5079 207.783 13.5082" fill="white"/>
<path d="M221.483 8.06596V19.8158H217.689V22.4579H228.571V19.8158H224.779V8.06596H228.572V5.44879H217.689V8.06596H221.483Z" fill="white"/>
</g>
<defs>
<clipPath id="clip0_0_1">
<rect width="170.9" height="28.2" fill="white"/>
</clipPath>
<clipPath id="clip1_0_1">
<rect width="55" height="28" fill="white" transform="translate(181)"/>
</clipPath>
</defs>
</svg>
