<svg width="236" height="29" viewBox="0 0 236 29" fill="none" xmlns="http://www.w3.org/2000/svg">
<g clip-path="url(#clip0_25_450)">
<path fill-rule="evenodd" clip-rule="evenodd" d="M26.3797 9.72C26.1785 9.04249 25.8146 8.42451 25.3197 7.92C23.1097 5.46 21.0797 4.53 17.7197 6.09H17.5497C16.9277 6.1163 16.3309 6.34268 15.8481 6.73548C15.3652 7.12827 15.022 7.66648 14.8697 8.27C13.6297 11.84 12.2997 15.37 10.9997 18.91C10.8097 19.17 10.6197 19.43 10.4197 19.68C8.03965 21.43 5.73965 23.06 2.41965 21.68C1.20965 21.19 -0.760347 21.34 0.269653 23.81C0.325076 24.1401 0.503795 24.4367 0.769653 24.64C1.08255 24.9773 1.45129 25.2581 1.85965 25.47C6.48965 28.47 11.5597 29.13 16.4497 26.77C21.9997 24.1 26.0397 19.88 26.4497 13.26C26.6423 12.0856 26.6186 10.8859 26.3797 9.72Z" fill="#CA312C"/>
<path d="M44.2754 22.427C43.624 22.689 42.9914 22.8837 42.3774 23.011C41.771 23.1382 41.1383 23.2019 40.4795 23.2019C39.4238 23.2019 38.488 23.0484 37.6719 22.7414C36.8633 22.427 36.1782 21.9628 35.6167 21.3488C35.0627 20.7349 34.6396 19.975 34.3477 19.0691C34.0632 18.1556 33.9209 17.0962 33.9209 15.8908C33.9209 14.6555 34.0781 13.5586 34.3926 12.6003C34.707 11.6345 35.1562 10.8222 35.7402 10.1633C36.3242 9.49696 37.0317 8.99159 37.8628 8.64719C38.7013 8.2953 39.641 8.11935 40.6816 8.11935C41.0186 8.11935 41.333 8.12684 41.625 8.14182C41.9245 8.15679 42.2165 8.18674 42.501 8.23166C42.7855 8.26909 43.0737 8.3215 43.3657 8.38889C43.6577 8.45627 43.9609 8.54237 44.2754 8.64719V11.3874C43.639 11.0879 43.0326 10.8746 42.4561 10.7473C41.8796 10.62 41.3555 10.5564 40.8838 10.5564C40.1875 10.5564 39.5923 10.6836 39.0981 10.9382C38.604 11.1853 38.196 11.5372 37.874 11.9939C37.5596 12.4431 37.3275 12.9821 37.1777 13.6111C37.028 14.2325 36.9531 14.9175 36.9531 15.6662C36.9531 16.4598 37.028 17.1711 37.1777 17.8C37.335 18.4214 37.5745 18.9493 37.8965 19.3835C38.2184 19.8178 38.6302 20.1509 39.1318 20.383C39.6335 20.6076 40.2287 20.7199 40.9175 20.7199C41.1646 20.7199 41.4303 20.6975 41.7148 20.6526C42.0068 20.6001 42.2988 20.5365 42.5908 20.4616C42.8903 20.3793 43.1823 20.2857 43.4668 20.1809C43.7588 20.0686 44.0283 19.9563 44.2754 19.844V22.427ZM57.4824 17.2048C57.4824 18.1032 57.3551 18.9268 57.1006 19.6755C56.846 20.4167 56.4792 21.0531 56 21.5847C55.5208 22.1163 54.9331 22.528 54.2368 22.82C53.5405 23.112 52.7469 23.258 51.856 23.258C51.0099 23.258 50.2537 23.1345 49.5874 22.8874C48.9211 22.6404 48.3558 22.2735 47.8916 21.7868C47.4274 21.2927 47.0718 20.6788 46.8247 19.945C46.5776 19.2038 46.4541 18.3428 46.4541 17.362C46.4541 16.4561 46.5814 15.6325 46.8359 14.8913C47.098 14.1501 47.4686 13.5175 47.9478 12.9934C48.4344 12.4693 49.0259 12.065 49.7222 11.7805C50.4185 11.4885 51.2046 11.3425 52.0806 11.3425C52.9341 11.3425 53.694 11.4698 54.3604 11.7243C55.0267 11.9714 55.592 12.342 56.0562 12.8362C56.5203 13.3303 56.8722 13.9442 57.1118 14.6779C57.3589 15.4042 57.4824 16.2465 57.4824 17.2048ZM54.6299 17.2722C54.6299 16.0892 54.4053 15.202 53.9561 14.6106C53.5143 14.0116 52.8592 13.7121 51.9907 13.7121C51.5116 13.7121 51.1035 13.8057 50.7666 13.9929C50.4297 14.1801 50.1527 14.4384 49.9355 14.7678C49.7184 15.0897 49.5575 15.4678 49.4526 15.9021C49.3553 16.3363 49.3066 16.8005 49.3066 17.2946C49.3066 18.4851 49.5462 19.3835 50.0254 19.99C50.5046 20.5889 51.1597 20.8884 51.9907 20.8884C52.4474 20.8884 52.8442 20.7986 53.1812 20.6189C53.5181 20.4317 53.7913 20.1771 54.001 19.8552C54.2106 19.5258 54.3678 19.1402 54.4727 18.6985C54.5775 18.2567 54.6299 17.7813 54.6299 17.2722ZM66.5679 8.4675C66.5679 8.71457 66.5229 8.94667 66.4331 9.16379C66.3433 9.38091 66.216 9.57183 66.0513 9.73654C65.894 9.89377 65.7069 10.021 65.4897 10.1184C65.2726 10.2082 65.0368 10.2531 64.7822 10.2531C64.5277 10.2531 64.2881 10.2082 64.0635 10.1184C63.8464 10.021 63.6554 9.89377 63.4907 9.73654C63.3335 9.57183 63.21 9.38091 63.1201 9.16379C63.0303 8.94667 62.9854 8.71457 62.9854 8.4675C62.9854 8.22043 63.0303 7.98833 63.1201 7.77121C63.21 7.55409 63.3335 7.36317 63.4907 7.19846C63.6554 7.03374 63.8464 6.90646 64.0635 6.81662C64.2881 6.71929 64.5277 6.67062 64.7822 6.67062C65.0368 6.67062 65.2726 6.71929 65.4897 6.81662C65.7069 6.90646 65.894 7.03374 66.0513 7.19846C66.216 7.36317 66.3433 7.55409 66.4331 7.77121C66.5229 7.98833 66.5679 8.22043 66.5679 8.4675ZM63.5356 13.7234H60.3125V11.5896H66.3433V20.8659H69.6338V22.9997H59.9194V20.8659H63.5356V13.7234ZM79.3032 22.9997V15.5652C79.3032 14.3148 78.839 13.6897 77.9106 13.6897C77.4465 13.6897 77.001 13.8768 76.5742 14.2512C76.1549 14.6255 75.7095 15.1347 75.2378 15.7785V22.9997H72.4976V11.5896H74.8672L74.9346 13.2741C75.1667 12.9821 75.4062 12.7164 75.6533 12.4768C75.9079 12.2372 76.1812 12.035 76.4731 11.8703C76.7651 11.6981 77.0796 11.5671 77.4165 11.4773C77.7534 11.3874 78.1315 11.3425 78.5508 11.3425C79.1348 11.3425 79.6439 11.4398 80.0781 11.6345C80.5124 11.8217 80.8755 12.0912 81.1675 12.4431C81.4595 12.7875 81.6766 13.2068 81.8188 13.7009C81.9686 14.1876 82.0435 14.7341 82.0435 15.3405V22.9997H79.3032ZM95.2842 12.9934C95.2842 13.757 95.1569 14.4646 94.9023 15.1159C94.6478 15.7598 94.2697 16.3176 93.7681 16.7893C93.2664 17.261 92.6413 17.6278 91.8926 17.8899C91.1439 18.1519 90.2754 18.2829 89.2871 18.2829H87.8833V22.9997H85.0981V8.3215H89.3994C90.3503 8.3215 91.1888 8.42632 91.915 8.63596C92.6488 8.8381 93.2627 9.13758 93.7568 9.53439C94.2585 9.9312 94.6366 10.4216 94.8911 11.0056C95.1532 11.5821 95.2842 12.2447 95.2842 12.9934ZM92.3867 13.1843C92.3867 12.795 92.3231 12.4431 92.1958 12.1286C92.076 11.8067 91.8888 11.5334 91.6343 11.3088C91.3872 11.0842 91.0728 10.912 90.6909 10.7922C90.3091 10.6724 89.8561 10.6125 89.332 10.6125H87.8833V15.9919H89.4219C89.901 15.9919 90.3241 15.9283 90.6909 15.801C91.0578 15.6662 91.3647 15.4753 91.6118 15.2282C91.8664 14.9812 92.0573 14.6854 92.1846 14.341C92.3193 13.9966 92.3867 13.6111 92.3867 13.1843ZM104.942 22.9997L104.875 21.5061C104.635 21.7606 104.385 21.9965 104.123 22.2136C103.861 22.4232 103.572 22.6067 103.258 22.7639C102.943 22.9211 102.599 23.0409 102.225 23.1233C101.858 23.2131 101.453 23.258 101.012 23.258C100.428 23.258 99.9149 23.1719 99.4731 22.9997C99.0314 22.8275 98.6608 22.5879 98.3613 22.281C98.0618 21.974 97.8335 21.6034 97.6763 21.1692C97.5265 20.7349 97.4517 20.2557 97.4517 19.7317C97.4517 19.1926 97.564 18.6947 97.7886 18.238C98.0207 17.7813 98.3688 17.3882 98.833 17.0588C99.3047 16.7294 99.8887 16.4711 100.585 16.2839C101.289 16.0967 102.112 16.0031 103.056 16.0031H104.549V15.3181C104.549 15.0261 104.508 14.764 104.426 14.532C104.343 14.2924 104.209 14.0902 104.021 13.9255C103.842 13.7608 103.606 13.6335 103.314 13.5437C103.022 13.4538 102.663 13.4089 102.236 13.4089C101.562 13.4089 100.896 13.4875 100.237 13.6447C99.5854 13.7945 98.9528 14.0079 98.3389 14.2849V12.0949C98.8854 11.8778 99.5143 11.6981 100.226 11.5559C100.944 11.4136 101.689 11.3425 102.46 11.3425C103.306 11.3425 104.033 11.4249 104.639 11.5896C105.246 11.7468 105.743 11.9864 106.133 12.3083C106.53 12.6303 106.822 13.0346 107.009 13.5212C107.196 14.0004 107.29 14.5619 107.29 15.2058V22.9997H104.942ZM104.549 17.9572H102.876C102.412 17.9572 102.019 18.0022 101.697 18.092C101.375 18.1819 101.113 18.3054 100.911 18.4626C100.708 18.6198 100.559 18.8033 100.461 19.0129C100.372 19.2151 100.327 19.4322 100.327 19.6643C100.327 20.1285 100.476 20.4841 100.776 20.7312C101.075 20.9708 101.483 21.0905 102 21.0905C102.382 21.0905 102.779 20.952 103.19 20.675C103.602 20.398 104.055 20.0012 104.549 19.4846V17.9572ZM120.699 17.0925C120.699 18.1407 120.549 19.0466 120.25 19.8103C119.958 20.5739 119.546 21.2103 119.014 21.7195C118.49 22.2211 117.869 22.5954 117.15 22.8425C116.431 23.0821 115.649 23.2019 114.803 23.2019C114.518 23.2019 114.234 23.1832 113.949 23.1457C113.665 23.1083 113.406 23.0596 113.174 22.9997V27.4582H110.434V11.5896H112.804L112.871 13.2741C113.103 12.9821 113.343 12.7164 113.59 12.4768C113.844 12.2372 114.118 12.035 114.41 11.8703C114.702 11.6981 115.016 11.5671 115.353 11.4773C115.69 11.3874 116.068 11.3425 116.487 11.3425C117.161 11.3425 117.76 11.4773 118.284 11.7468C118.808 12.0163 119.246 12.4019 119.598 12.9035C119.958 13.3977 120.231 14.0004 120.418 14.7116C120.605 15.4154 120.699 16.209 120.699 17.0925ZM117.824 17.2048C117.824 16.5759 117.779 16.0406 117.689 15.5988C117.599 15.1571 117.468 14.794 117.296 14.5095C117.131 14.225 116.925 14.0191 116.678 13.8918C116.439 13.757 116.162 13.6897 115.847 13.6897C115.383 13.6897 114.938 13.8768 114.511 14.2512C114.091 14.6255 113.646 15.1347 113.174 15.7785V20.7649C113.391 20.8472 113.657 20.9146 113.972 20.967C114.294 21.0194 114.619 21.0456 114.949 21.0456C115.383 21.0456 115.776 20.9558 116.128 20.7761C116.487 20.5964 116.791 20.3418 117.038 20.0124C117.292 19.683 117.487 19.2824 117.622 18.8108C117.756 18.3316 117.824 17.7963 117.824 17.2048ZM130.424 16.0256C130.439 15.5988 130.417 15.2357 130.357 14.9362C130.305 14.6368 130.215 14.3897 130.087 14.195C129.968 14.0004 129.818 13.8581 129.638 13.7683C129.458 13.6784 129.253 13.6335 129.021 13.6335C128.616 13.6335 128.197 13.802 127.763 14.1389C127.336 14.4683 126.864 15.0149 126.348 15.7785V22.9997H123.54V11.5896H126.022L126.123 13.2517C126.31 12.9597 126.52 12.6976 126.752 12.4655C126.992 12.2334 127.254 12.035 127.538 11.8703C127.83 11.6981 128.152 11.5671 128.504 11.4773C128.856 11.3874 129.241 11.3425 129.661 11.3425C130.237 11.3425 130.746 11.4436 131.188 11.6457C131.637 11.8404 132.012 12.1324 132.311 12.5217C132.618 12.911 132.843 13.4014 132.985 13.9929C133.135 14.5769 133.198 15.2544 133.176 16.0256H130.424ZM142.441 8.4675C142.441 8.71457 142.396 8.94667 142.306 9.16379C142.216 9.38091 142.089 9.57183 141.924 9.73654C141.767 9.89377 141.58 10.021 141.363 10.1184C141.146 10.2082 140.91 10.2531 140.655 10.2531C140.401 10.2531 140.161 10.2082 139.937 10.1184C139.719 10.021 139.528 9.89377 139.364 9.73654C139.207 9.57183 139.083 9.38091 138.993 9.16379C138.903 8.94667 138.858 8.71457 138.858 8.4675C138.858 8.22043 138.903 7.98833 138.993 7.77121C139.083 7.55409 139.207 7.36317 139.364 7.19846C139.528 7.03374 139.719 6.90646 139.937 6.81662C140.161 6.71929 140.401 6.67062 140.655 6.67062C140.91 6.67062 141.146 6.71929 141.363 6.81662C141.58 6.90646 141.767 7.03374 141.924 7.19846C142.089 7.36317 142.216 7.55409 142.306 7.77121C142.396 7.98833 142.441 8.22043 142.441 8.4675ZM139.409 13.7234H136.186V11.5896H142.216V20.8659H145.507V22.9997H135.792V20.8659H139.409V13.7234ZM155.435 22.9997L151.223 17.2946V22.9997H148.483V7.13107H151.223V16.4187L155.21 11.5896H158.635L154.008 16.7893L159.017 22.9997H155.435ZM168.17 22.9997L168.103 21.5061C167.863 21.7606 167.612 21.9965 167.35 22.2136C167.088 22.4232 166.8 22.6067 166.485 22.7639C166.171 22.9211 165.826 23.0409 165.452 23.1233C165.085 23.2131 164.681 23.258 164.239 23.258C163.655 23.258 163.142 23.1719 162.701 22.9997C162.259 22.8275 161.888 22.5879 161.589 22.281C161.289 21.974 161.061 21.6034 160.904 21.1692C160.754 20.7349 160.679 20.2557 160.679 19.7317C160.679 19.1926 160.792 18.6947 161.016 18.238C161.248 17.7813 161.596 17.3882 162.061 17.0588C162.532 16.7294 163.116 16.4711 163.812 16.2839C164.516 16.0967 165.34 16.0031 166.283 16.0031H167.777V15.3181C167.777 15.0261 167.736 14.764 167.653 14.532C167.571 14.2924 167.436 14.0902 167.249 13.9255C167.069 13.7608 166.833 13.6335 166.542 13.5437C166.25 13.4538 165.89 13.4089 165.463 13.4089C164.79 13.4089 164.123 13.4875 163.464 13.6447C162.813 13.7945 162.18 14.0079 161.566 14.2849V12.0949C162.113 11.8778 162.742 11.6981 163.453 11.5559C164.172 11.4136 164.917 11.3425 165.688 11.3425C166.534 11.3425 167.26 11.4249 167.867 11.5896C168.473 11.7468 168.971 11.9864 169.36 12.3083C169.757 12.6303 170.049 13.0346 170.236 13.5212C170.424 14.0004 170.517 14.5619 170.517 15.2058V22.9997H168.17ZM167.777 17.9572H166.104C165.639 17.9572 165.246 18.0022 164.924 18.092C164.602 18.1819 164.34 18.3054 164.138 18.4626C163.936 18.6198 163.786 18.8033 163.689 19.0129C163.599 19.2151 163.554 19.4322 163.554 19.6643C163.554 20.1285 163.704 20.4841 164.003 20.7312C164.303 20.9708 164.711 21.0905 165.228 21.0905C165.609 21.0905 166.006 20.952 166.418 20.675C166.83 20.398 167.283 20.0012 167.777 19.4846V17.9572Z" fill="#333333"/>
<path fill-rule="evenodd" clip-rule="evenodd" d="M24.3999 6.23C24.4329 5.30726 24.5332 4.38816 24.6999 3.48C24.9799 1.1 23.6999 0.0700005 22.6999 0.0100005C22.2219 -0.016839 21.7437 0.0584631 21.2971 0.230892C20.8505 0.403321 20.4458 0.66892 20.1099 1.01C19.936 1.16745 19.8281 1.38477 19.8077 1.61842C19.7873 1.85208 19.8559 2.08481 19.9999 2.27C20.4699 2.76 20.8799 2.75 21.1499 1.73C21.5999 0.0800006 23.5199 1.73 23.4599 2.57C23.3599 4.25 22.1499 4.88 21.0899 5.57C20.0299 6.26 18.9999 6.41 17.2699 7C17.177 7.04347 17.0975 7.1112 17.0399 7.19606C16.9822 7.28092 16.9486 7.37976 16.9424 7.48215C16.9363 7.58455 16.9579 7.6867 17.005 7.77784C17.052 7.86898 17.1228 7.94573 17.2099 8C17.6505 8.06947 18.0993 8.06947 18.5399 8C19.9499 7.77 20.3799 8.19 20.8199 9.58C21.6704 9.16813 22.6293 9.03515 23.5599 9.2C24.4899 9.54 24.4999 10.11 24.8199 10.51C24.8819 10.5314 24.9482 10.5373 25.013 10.527C25.0778 10.5168 25.1391 10.4907 25.1914 10.4512C25.2438 10.4117 25.2856 10.3599 25.3133 10.3004C25.3409 10.2409 25.3535 10.1755 25.3499 10.11C24.6751 8.93155 24.3459 7.58689 24.3999 6.23Z" fill="#91B949"/>
</g>
<g clip-path="url(#clip1_25_450)">
<path d="M184.785 0H232.215C233.219 0 234.182 0.39391 234.891 1.09507C235.601 1.79624 236 2.74722 236 3.73882V24.2612C236 25.2528 235.601 26.2038 234.891 26.9049C234.182 27.6061 233.219 28 232.215 28H184.785C183.781 28 182.818 27.6061 182.109 26.9049C181.399 26.2038 181 25.2528 181 24.2612V3.73882C181 2.74722 181.399 1.79624 182.109 1.09507C182.818 0.39391 183.781 0 184.785 0Z" fill="#CE0016"/>
<path d="M203.299 22.4579L198.2 5.45001H193.669L188.57 22.4579H191.785L192.76 19.1004H198.767L199.716 22.4579H203.299ZM198.043 16.4845H193.537L195.808 8.57192L198.043 16.4845Z" fill="white"/>
<path d="M207.747 22.4589H204.481V5.4498H209.528C210.525 5.43637 211.52 5.5567 212.484 5.80748C213.268 6.01206 214.002 6.36832 214.645 6.8556C215.222 7.3064 215.679 7.88896 215.976 8.55302C216.29 9.28325 216.445 10.0705 216.43 10.8636C216.438 11.7016 216.286 12.5335 215.983 13.3163C215.691 14.0547 215.237 14.7194 214.652 15.2617C214.017 15.8362 213.268 16.2723 212.451 16.5416C211.467 16.8592 210.437 17.0116 209.402 16.9928H207.747V22.4589ZM207.787 13.5082C207.727 13.5031 207.666 13.5127 207.611 13.5362C207.555 13.5597 207.507 13.5963 207.469 13.6428C207.432 13.7241 207.415 13.813 207.421 13.9019C207.426 13.9909 207.453 14.0773 207.499 14.1538C207.515 14.2434 207.564 14.324 207.637 14.3793C207.71 14.4632 207.799 14.5326 207.899 14.5837L207.938 14.6087C208.633 15.0815 209.453 15.3416 210.296 15.3564C210.88 15.3536 211.456 15.2198 211.979 14.9651C212.749 14.6719 213.418 14.1689 213.91 13.5145C214.401 12.8601 214.694 12.0812 214.755 11.2686C214.806 10.9433 214.798 10.6116 214.731 10.2891C214.674 10.102 214.573 9.93109 214.436 9.79057C214.356 9.70333 214.274 9.62108 214.191 9.54131V9.52885C214.191 9.46654 214.191 9.40422 214.191 9.33194C214.191 9.15134 214.208 8.97114 214.242 8.79355C214.253 8.72127 214.264 8.65023 214.273 8.57795C214.3 8.44866 214.299 8.31522 214.27 8.18636C214.241 8.0575 214.185 7.93612 214.105 7.83018C214.057 7.77118 213.997 7.72253 213.929 7.68718C213.86 7.65183 213.786 7.63052 213.709 7.62455H213.652C213.528 7.62507 213.405 7.65015 213.291 7.69831C213.177 7.74647 213.074 7.81673 212.987 7.90496C212.941 7.94909 212.914 8.00901 212.911 8.07248C212.908 8.13595 212.929 8.19818 212.971 8.24644C212.989 8.2699 213.011 8.28969 213.036 8.30466C213.061 8.31963 213.089 8.3295 213.119 8.33368C213.191 8.33368 213.245 8.25641 213.29 8.09938C213.324 7.97475 213.394 7.90745 213.492 7.90745C213.613 7.92085 213.725 7.98029 213.802 8.07321C213.875 8.14034 213.92 8.23185 213.929 8.32994C213.909 8.49606 213.846 8.6543 213.746 8.78941C213.646 8.92452 213.512 9.03196 213.358 9.10138C213.289 9.09247 213.219 9.08789 213.149 9.08767C212.866 9.09595 212.587 9.16528 212.334 9.29081H212.288C212.116 9.2987 211.951 9.36091 211.817 9.46834C211.683 9.57577 211.587 9.72277 211.544 9.88778C211.299 10.5857 211.039 11.2898 210.787 11.9715C210.684 12.2482 210.581 12.5245 210.479 12.8003L210.4 12.9063L210.32 13.0122C209.889 13.4041 209.339 13.6465 208.756 13.7026C208.53 13.7006 208.307 13.6548 208.099 13.568C207.998 13.5282 207.891 13.5079 207.783 13.5082" fill="white"/>
<path d="M221.483 8.06596V19.8158H217.689V22.4579H228.571V19.8158H224.779V8.06596H228.572V5.44879H217.689V8.06596H221.483Z" fill="white"/>
</g>
<defs>
<clipPath id="clip0_25_450">
<rect width="170.86" height="28.24" fill="white"/>
</clipPath>
<clipPath id="clip1_25_450">
<rect width="55" height="28" fill="white" transform="translate(181)"/>
</clipPath>
</defs>
</svg>
